<svg width="60" height="60" viewBox="0 0 60 60" fill="none" xmlns="http://www.w3.org/2000/svg">
<path d="M30 3.75C15.5039 3.75 3.75 15.5039 3.75 30C3.75 44.4961 15.5039 56.25 30 56.25C44.4961 56.25 56.25 44.4961 56.25 30C56.25 15.5039 44.4961 3.75 30 3.75ZM30 51.7969C17.9648 51.7969 8.20312 42.0352 8.20312 30C8.20312 17.9648 17.9648 8.20312 30 8.20312C42.0352 8.20312 51.7969 17.9648 51.7969 30C51.7969 42.0352 42.0352 51.7969 30 51.7969Z" fill="currentColor"/>
<path d="M27.1875 19.6875C27.1875 20.4334 27.4838 21.1488 28.0113 21.6762C28.5387 22.2037 29.2541 22.5 30 22.5C30.7459 22.5 31.4613 22.2037 31.9887 21.6762C32.5162 21.1488 32.8125 20.4334 32.8125 19.6875C32.8125 18.9416 32.5162 18.2262 31.9887 17.6988C31.4613 17.1713 30.7459 16.875 30 16.875C29.2541 16.875 28.5387 17.1713 28.0113 17.6988C27.4838 18.2262 27.1875 18.9416 27.1875 19.6875ZM31.4062 26.25H28.5938C28.3359 26.25 28.125 26.4609 28.125 26.7188V42.6562C28.125 42.9141 28.3359 43.125 28.5938 43.125H31.4062C31.6641 43.125 31.875 42.9141 31.875 42.6562V26.7188C31.875 26.4609 31.6641 26.25 31.4062 26.25Z" fill="currentColor"/>
</svg>
