<svg width="3357" height="2838" viewBox="0 0 3357 2838" fill="none" xmlns="http://www.w3.org/2000/svg">
<g opacity="0.4">
<path opacity="0.5" d="M3242.34 0.904297H1634.08V1934.33H3242.34V0.904297Z" fill="#F3F3F3"/>
<path opacity="0.5" d="M481.946 2363.35H0.423828V2837.13H481.946V2363.35Z" fill="white"/>
<path opacity="0.5" d="M1104.16 2004.95H622.636V2837.13H1104.16V2004.95Z" fill="white"/>
<path opacity="0.5" d="M1726.35 1592.79H1244.82V2837.15H1726.35V1592.79Z" fill="white"/>
<path opacity="0.5" d="M855.699 2040.4H799.771V2074.33H855.699V2040.4Z" fill="#DE8E68"/>
<path opacity="0.5" d="M1469.27 1601.66H1413.34V1635.59H1469.27V1601.66Z" fill="#DE8E68"/>
<path opacity="0.5" d="M1179.92 1075.39C1213.4 1075.39 1482.1 1106.8 1599.65 1156.76C1583.48 1221.93 1477.78 1605.76 1477.78 1605.76H1411.97C1411.97 1605.76 1387.19 1282.63 1381.83 1285.32C1346.23 1300.48 1204.94 1338.72 1053.93 1340.58" fill="black"/>
<path opacity="0.5" d="M1179.92 1075.39L857.775 2044.86H799.771V1075.39" fill="black"/>
<path opacity="0.5" d="M1239.57 667.944C1255.81 673.792 1311.47 712.29 1321.41 726.147C1412.3 632.496 1562.2 537.984 1574.46 527.065C1586.71 516.145 1590.54 455.308 1590.54 442.005C1590.54 428.701 1612.71 393.252 1634.08 393.252V552.757C1634.08 552.757 1383.23 843.916 1341.94 843.916C1315.15 843.916 1182.83 795.798 1164.44 781.247" fill="#DE8E68"/>
<path opacity="0.5" d="M1035.27 614.343C1068.36 569.997 1259.65 638.678 1259.65 659.88C1259.65 681.083 1188.72 778.726 1156.94 777.34C1131.62 776.343 1001 660.379 1035.27 614.343Z" fill="#72F5E5" fill-opacity="0.25"/>
<path opacity="0.5" d="M988.823 550.012C1231.89 550.012 1218.29 1050.9 1179.92 1075.39C1141.54 1099.89 826.53 1111.78 797.727 1075.39C768.925 1039.01 757.774 550.012 988.823 550.012Z" fill="white"/>
<path opacity="0.5" d="M725.92 708.133C682.75 719.357 571.697 892.637 571.697 919.074C571.697 974.509 797.824 1218.66 826.591 1218.66C838.581 1201.45 857.771 1165.75 857.771 1165.75C857.771 1165.75 721.935 956.105 697.018 928.998C718.586 912.369 796.885 825.173 809.679 798.07C822.472 770.965 817.683 712.761 817.683 712.761L725.92 708.133Z" fill="#DE8E68"/>
<path opacity="0.5" d="M881.014 603.613C936.138 628.557 863.431 790.196 837.844 791.527C812.258 792.857 690.722 739.116 690.722 712.787C690.722 691.611 823.678 577.588 881.014 603.613Z" fill="#72F5E5" fill-opacity="0.65"/>
<path opacity="0.5" d="M799.771 2067.15V2108.17H949.136V2093.29L858.445 2067.15H799.771Z" fill="black"/>
<path opacity="0.5" d="M1410.91 1631.84V1672.86H1560.31V1658L1469.61 1631.84H1410.91Z" fill="black"/>
<path opacity="0.5" d="M3242.34 0.904297H1634.08V125.432H3242.34V0.904297Z" fill="#DFDFDF"/>
<path opacity="0.5" d="M3356.14 282.278H2005.48V600.761H3356.14V282.278Z" fill="#DFDFDF"/>
<path opacity="0.5" d="M3291.88 343.916H2084.36V372.769H3291.88V343.916Z" fill="#F9F9F9"/>
<path opacity="0.5" d="M3291.88 412.652H2084.36V441.505H3291.88V412.652Z" fill="#F9F9F9"/>
<path opacity="0.5" d="M3291.88 481.414H2084.36V510.267H3291.88V481.414Z" fill="#F9F9F9"/>
<path opacity="0.5" d="M3356.14 728.751H2005.48V1047.23H3356.14V728.751Z" fill="#DFDFDF"/>
<path opacity="0.5" d="M2185.39 982.827C2248.69 982.827 2300 940.355 2300 887.98C2300 835.595 2248.69 793.135 2185.39 793.135C2122.09 793.135 2070.78 835.595 2070.78 887.98C2070.78 940.355 2122.09 982.827 2185.39 982.827Z" fill="#F9F9F9"/>
<path opacity="0.5" d="M3263.85 793.135H2384.56V884.878H3263.85V793.135Z" fill="#F9F9F9"/>
<path opacity="0.5" d="M3263.85 915.971H2384.56V949.676H3263.85V915.971Z" fill="#F9F9F9"/>
<path opacity="0.5" d="M3059.86 1185.37H1791.28V1701.88H3059.86V1185.37Z" fill="white"/>
<path opacity="0.5" d="M1049.14 451.451H952.855V564.504C952.855 592.58 1049.14 593.052 1049.14 564.504V451.451Z" fill="#D37C59"/>
<path opacity="0.5" d="M1119.51 399.627C1102.56 339.567 1048.67 298.659 999.135 308.165C956.712 316.479 931.29 358.94 935.501 408.746C928.208 410.491 921.916 414.356 917.785 419.632C913.655 424.909 911.964 431.242 913.021 437.468C914.081 443.693 917.818 449.394 923.549 453.521C929.274 457.649 936.618 459.928 944.219 459.937C946.145 459.921 948.071 459.764 949.972 459.465C972.955 505.252 1018.33 533.772 1060.5 525.623C1110.02 516.116 1136.44 459.66 1119.51 399.627Z" fill="#DE8E68"/>
<path opacity="0.5" d="M960.088 427.702C972.748 427.702 974.956 413.234 974.956 400.402C974.956 383.218 994.678 367.697 1006.84 364.759C1028.84 359.493 1040.07 358.273 1053.39 352.287C1066.72 346.3 1082.59 337.293 1082.59 337.293C1088.5 343.173 1093.85 349.407 1098.64 355.945C1110.86 353.174 1174.9 340.536 1174.9 302.565C1174.9 277.621 1149.58 274.35 1138.06 266.534C1125.8 258.219 1131.06 233.081 1097.87 233.081C1068.12 233.081 1053.5 258.94 1034.47 268.889C1011.46 280.947 966.315 271.246 936.579 296.606C922.143 308.912 918.761 339.205 909.786 350.291C897.528 365.313 876.295 369.693 876.295 392.613C876.295 409.437 893.543 437.846 914.307 442.003C914.307 425.374 921.641 409.465 936.514 409.465C952.692 409.465 941.496 427.702 960.088 427.702Z" fill="#FD8369"/>
</g>
</svg>
