<svg width="698" height="662" viewBox="0 0 698 662" fill="none" xmlns="http://www.w3.org/2000/svg">
<g opacity="0.5">
<ellipse rx="82.4586" ry="85.5347" transform="matrix(-1 0 0 1 526.272 -13.6458)" fill="#0E67EC" fill-opacity="0.3"/>
<path d="M700.196 -129L591.598 62.4722H808.794L700.196 -129Z" fill="#0E67EC" fill-opacity="0.3"/>
<path d="M689.101 227.787L580.503 419.259H797.699L689.101 227.787Z" fill="#0E67EC" fill-opacity="0.3"/>
<path d="M353.719 -129L245.121 62.4722H462.317L353.719 -129Z" fill="#0E67EC" fill-opacity="0.3"/>
<path d="M146.398 -129L37.8002 62.4722H254.996L146.398 -129Z" fill="#0E67EC" fill-opacity="0.3"/>
<path d="M121.544 60.3796L16.2838 236.942H226.805L121.544 60.3796Z" fill="#0E67EC" fill-opacity="0.3"/>
<path d="M342.623 227.787L234.025 419.259H451.221L342.623 227.787Z" fill="#0E67EC" fill-opacity="0.3"/>
<path d="M449.542 40.5L340.944 231.972H558.14L449.542 40.5Z" fill="#0E67EC" fill-opacity="0.3"/>
<path d="M438.447 397.287L329.849 588.759H547.045L438.447 397.287Z" fill="#0E67EC" fill-opacity="0.3"/>
<path d="M805.602 49.9167L697.004 241.389H914.2L805.602 49.9167Z" fill="#0E67EC" fill-opacity="0.3"/>
<path d="M794.506 406.704L685.908 598.176H903.104L794.506 406.704Z" fill="#0E67EC" fill-opacity="0.3"/>
<ellipse rx="82.4586" ry="85.5347" transform="matrix(-1 0 0 1 627.139 157.424)" fill="#0E67EC" fill-opacity="0.3"/>
<ellipse rx="82.4586" ry="85.5347" transform="matrix(-1 0 0 1 616.044 514.211)" fill="#0E67EC" fill-opacity="0.3"/>
<ellipse rx="82.4586" ry="85.5347" transform="matrix(-1 0 0 1 515.177 343.141)" fill="#0E67EC" fill-opacity="0.3"/>
<ellipse rx="82.4586" ry="85.5347" transform="matrix(-1 0 0 1 286.714 153.762)" fill="#0E67EC" fill-opacity="0.3"/>
<ellipse rx="82.4586" ry="85.5347" transform="matrix(-1 0 0 1 275.618 510.549)" fill="#0E67EC" fill-opacity="0.3"/>
</g>
</svg>
