<svg width="64" height="60" viewBox="0 0 64 60" fill="none" xmlns="http://www.w3.org/2000/svg">
<path d="M56.7343 3.08065C48.2973 10.3827 41.1593 17.3337 34.6243 26.4027C31.7423 30.4027 28.5373 35.1106 26.4423 39.5556C25.2463 41.9126 23.0903 45.5956 22.3553 49.1367C18.3353 45.3966 14.0173 41.1516 9.59926 37.8266C6.45026 35.4576 -2.61974 40.2877 1.07226 43.0657C7.68926 48.0427 13.1923 54.2416 19.6283 59.4407C22.3203 61.6127 28.2863 56.8956 29.6883 54.9166C34.2903 48.3966 34.9193 40.4266 38.2733 33.3146C43.3943 22.4376 52.4763 13.5027 61.4433 5.74365C67.3843 0.202651 61.2483 -0.81935 56.7433 3.08065" fill="currentColor"/>
</svg>
