<svg width="60" height="60" viewBox="0 0 60 60" fill="none" xmlns="http://www.w3.org/2000/svg">
<path d="M55.459 29.5898L31.3242 5.47261C31.1504 5.29849 30.944 5.16035 30.7168 5.0661C30.4896 4.97185 30.246 4.92334 30 4.92334C29.754 4.92334 29.5104 4.97185 29.2832 5.0661C29.056 5.16035 28.8496 5.29849 28.6758 5.47261L4.54102 29.5898C3.83789 30.2929 3.43945 31.248 3.43945 32.2441C3.43945 34.3124 5.12109 35.9941 7.18945 35.9941H9.73242V53.2031C9.73242 54.2402 10.5703 55.0781 11.6074 55.0781H26.25V41.9531H32.8125V55.0781H48.3926C49.4297 55.0781 50.2676 54.2402 50.2676 53.2031V35.9941H52.8105C53.8066 35.9941 54.7617 35.6015 55.4648 34.8925C56.9238 33.4277 56.9238 31.0546 55.459 29.5898Z" fill="currentColor"/>
</svg>
