<svg width="71" height="62" viewBox="0 0 71 62" fill="none" xmlns="http://www.w3.org/2000/svg">
<path d="M9.53674e-05 31.1138C9.53674e-05 26.8492 3.7401 24.6153 8.8001 24.6153L23.5401 24.6153C22.4401 20.9599 22.0001 17.5076 22.0001 14.4615C22.0001 2.68302 25.5201 0.246094 28.6001 0.246094C30.5801 0.246094 32.1201 0.449171 34.1001 1.46456C34.7601 1.87071 34.9801 2.27686 35.2001 2.88609L37.4001 13.8522C39.8201 19.5384 45.7601 24.6153 50.6001 28.0676L50.6001 57.1076C48.8401 57.1076 47.0801 57.92 44.8801 58.9353C42.4601 59.9507 40.0401 61.1692 37.4001 61.1692L16.5001 61.1692C12.1001 61.1692 8.8001 57.9199 8.8001 55.0769C8.8001 54.4676 8.80009 54.0615 9.02009 53.6553C6.38009 52.6399 4.4001 50.6092 4.4001 47.9692C4.4001 46.7507 4.62009 45.7353 5.0601 44.7199C3.30009 43.7046 1.76009 41.8769 1.76009 39.8461C1.76009 38.6276 2.4201 37.4092 3.0801 36.3938C1.3201 35.1753 9.53674e-05 33.1446 9.53674e-05 31.1138ZM4.62009 31.1138C4.62009 33.7538 7.48009 33.9569 7.92009 35.1753C8.36009 36.5969 6.1601 37.003 6.1601 39.4399C6.1601 41.8769 9.4601 41.8769 9.9001 43.2984C10.3401 44.923 8.8001 45.3292 8.8001 47.7661V48.1723C9.2401 50.203 12.5401 50.4061 13.2001 51.2184C13.8601 52.2338 13.2001 52.64 13.2001 54.8738C13.2001 56.0923 14.7401 56.9046 16.5001 56.9046L37.4001 56.9046C39.1601 56.9046 40.9201 56.0923 43.1201 55.0769C44.8801 54.2646 46.6401 53.4523 48.4001 53.0461L48.4001 31.723C42.9001 27.8646 35.8601 22.1784 33.2201 15.0707L33.2201 14.6646L31.2401 4.51071C30.3601 4.30763 29.7001 4.30763 28.6001 4.30763C28.1601 4.30763 26.4001 6.74456 26.4001 14.4615C26.4001 17.5076 27.0601 20.7569 28.1601 24.6153H28.6001C29.9201 24.6153 30.8001 25.4276 30.8001 26.6461C30.8001 27.8646 29.9201 28.6769 28.6001 28.6769L8.8001 28.6769C6.6001 28.6769 4.62009 29.6923 4.62009 31.1138Z" fill="currentColor"/>
<path d="M52.7999 61.1691L65.9999 61.1691C68.4199 61.1691 70.3999 59.3414 70.3999 57.1075L70.3999 28.6768C70.3999 26.4429 68.4199 24.6152 65.9999 24.6152L52.7999 24.6152C50.3799 24.6152 48.3999 26.4429 48.3999 28.6768L48.3999 57.1075C48.3999 59.3414 50.3799 61.1691 52.7999 61.1691ZM65.9999 28.6768L65.9999 57.1075L52.7999 57.1075L52.7999 28.6768L65.9999 28.6768Z" fill="currentColor"/>
</svg>
