<svg width="50" height="50" viewBox="0 0 50 50" fill="none" xmlns="http://www.w3.org/2000/svg">
<path d="M41.6666 8.33301H12.4999C10.202 8.33301 8.33325 10.2018 8.33325 12.4997V22.9163H12.4999V16.6663L25.8333 26.6663C26.194 26.9365 26.6326 27.0825 27.0833 27.0825C27.5339 27.0825 27.9725 26.9365 28.3333 26.6663L41.6666 16.6663V35.4163H24.9999V39.583H41.6666C43.9645 39.583 45.8333 37.7143 45.8333 35.4163V12.4997C45.8333 10.2018 43.9645 8.33301 41.6666 8.33301ZM27.0833 22.3955L13.8874 12.4997H40.2791L27.0833 22.3955Z" fill="currentColor"/>
<path d="M4.16675 25H18.7501V29.1667H4.16675V25ZM8.33341 31.25H20.8334V35.4167H8.33341V31.25ZM14.5834 37.5H22.9167V41.6667H14.5834V37.5Z" fill="currentColor"/>
</svg>
