<svg width="38" height="38" viewBox="0 0 38 38" fill="none" xmlns="http://www.w3.org/2000/svg">
<path d="M37.2969 0.703101C37.0861 0.493215 36.8197 0.347898 36.529 0.284236C36.2384 0.220574 35.9356 0.241212 35.6563 0.343726L1.28131 12.8437C0.984856 12.9562 0.729625 13.1561 0.549517 13.4171C0.369409 13.678 0.272949 13.9876 0.272949 14.3047C0.272949 14.6217 0.369409 14.9313 0.549517 15.1922C0.729625 15.4532 0.984856 15.6532 1.28131 15.7656L16.2813 21.7656L22.2813 36.7656C22.394 37.049 22.5873 37.2933 22.8372 37.4682C23.087 37.6431 23.3827 37.7411 23.6876 37.75C24.0033 37.7435 24.3097 37.6415 24.5663 37.4574C24.8229 37.2733 25.0177 37.0158 25.1251 36.7187L37.6251 2.34373C37.7315 2.06728 37.7572 1.76627 37.6991 1.47579C37.641 1.18531 37.5015 0.917335 37.2969 0.703101ZM23.6876 31.8125L19.3282 20.875L26.8126 13.3906L24.6094 11.1875L17.0626 18.7343L6.18756 14.3125L33.5782 4.42185L23.6876 31.8125Z" fill="currentColor"/>
</svg>
