<svg width="1463" height="1235" viewBox="0 0 1463 1235" fill="none" xmlns="http://www.w3.org/2000/svg">
<g opacity="0.5">
<circle cx="513.787" cy="60.5207" r="148.686" fill="white" fill-opacity="0.4"/>
<path d="M200.175 -140L395.994 192.837H4.35617L200.175 -140Z" fill="#6EA4F4"/>
<path d="M220.182 480.205L416.001 813.042H24.3628L220.182 480.205Z" fill="#6EA4F4"/>
<path d="M824.927 -140L1020.75 192.837H629.108L824.927 -140Z" fill="#6EA4F4"/>
<path d="M1187.77 -140L1383.59 192.837H991.955L1187.77 -140Z" fill="#6EA4F4"/>
<path d="M1243.57 189.2L1433.37 496.119H1053.77L1243.57 189.2Z" fill="#6EA4F4"/>
<path d="M844.934 480.205L1040.75 813.042H649.115L844.934 480.205Z" fill="#6EA4F4"/>
<path d="M652.143 154.643L847.962 487.48H456.324L652.143 154.643Z" fill="#6EA4F4"/>
<path d="M672.149 774.848L867.968 1107.68H476.33L672.149 774.848Z" fill="#6EA4F4"/>
<path d="M10.1123 171.012L205.931 503.849H-185.707L10.1123 171.012Z" fill="#6EA4F4"/>
<path d="M30.1189 791.217L225.938 1124.05H-165.7L30.1189 791.217Z" fill="#6EA4F4"/>
<circle cx="331.908" cy="357.892" r="148.686" fill="white" fill-opacity="0.4"/>
<circle cx="351.915" cy="978.097" r="148.686" fill="white" fill-opacity="0.4"/>
<circle cx="533.793" cy="680.726" r="148.686" fill="white" fill-opacity="0.4"/>
<circle cx="945.748" cy="351.526" r="148.686" fill="white" fill-opacity="0.4"/>
<circle cx="965.754" cy="971.731" r="148.686" fill="white" fill-opacity="0.4"/>
</g>
</svg>
